<?xml version="1.0" encoding="iso-8859-1"?>
<!-- Generator: Adobe Illustrator 19.0.0, SVG Export Plug-In . SVG Version: 6.00 Build 0)  -->
<svg version="1.1" id="Layer_1" xmlns="http://www.w3.org/2000/svg" xmlns:xlink="http://www.w3.org/1999/xlink" x="0px" y="0px"
	 viewBox="0 0 473.68 473.68" style="enable-background:new 0 0 473.68 473.68;" xml:space="preserve">
<path style="fill:#344E5D;" d="M0,236.844C0,106.025,106.036,0,236.836,0C367.644,0,473.68,106.025,473.68,236.844
	c0,130.793-106.036,236.836-236.844,236.836C106.04,473.68,0,367.636,0,236.844z"/>
<g>
	<path style="fill:#FFFFFF;" d="M393.754,269.521c-14.237-22.21-28.47-44.419-42.706-66.625c-2.913-4.551-9.226-4.476-12.12,0.045
		c-14.233,22.206-28.462,44.419-42.699,66.625c-1.855,2.894-1.249,5.688,0.475,7.636c1.092,1.679,2.921,2.883,5.546,2.883
		c9.715,0,19.427,0,29.139,0c0.254,18.059-2.206,36.973-23.346,38.394c-13.93,0.939-28.241,0-42.19,0c-24.689,0-49.374,0-74.063,0
		c-17.823,0-37.235,3.796-49.711-11.615c-11.361-14.035-31.001,6.01-19.726,19.94c16.795,20.755,39.528,19.73,63.386,19.73
		c28.847,0,57.695,0,86.546,0c20.725,0,42.317,2.595,61.374-6.967c23.096-11.589,25.493-36.229,25.429-59.478
		c9.525,0,19.046,0,28.571,0C392.826,280.085,396.689,274.102,393.754,269.521z"/>
	<path style="fill:#FFFFFF;" d="M348.957,141.723c-16.795-20.755-39.528-19.73-63.386-19.73c-28.847,0-57.695,0-86.546,0
		c-20.725,0-42.317-2.595-61.374,6.967c-23.096,11.589-25.493,36.229-25.429,59.478c-9.42,0-18.836,0-28.256,0
		c-5.172,0-9.035,5.983-6.099,10.561c14.237,22.209,28.47,44.419,42.706,66.625c2.913,4.551,9.226,4.476,12.12-0.045
		c14.233-22.206,28.462-44.419,42.699-66.625c1.855-2.891,1.249-5.688-0.475-7.636c-1.092-1.679-2.921-2.883-5.546-2.883
		c-9.82,0-19.637,0-29.453,0c-0.254-18.059,2.206-36.973,23.346-38.395c13.93-0.939,28.241,0,42.19,0c24.689,0,49.374,0,74.063,0
		c17.823,0,37.235-3.796,49.711,11.615C340.588,175.698,360.228,155.653,348.957,141.723z"/>
</g>
<g>
</g>
<g>
</g>
<g>
</g>
<g>
</g>
<g>
</g>
<g>
</g>
<g>
</g>
<g>
</g>
<g>
</g>
<g>
</g>
<g>
</g>
<g>
</g>
<g>
</g>
<g>
</g>
<g>
</g>
</svg>
